<mxfile host="app.diagrams.net" modified="2023-04-04T18:53:10.443Z" agent="Mozilla/5.0 (Windows NT 10.0; Win64; x64) AppleWebKit/537.36 (KHTML, like Gecko) Chrome/111.0.0.0 Safari/537.36" etag="Mp1aitgyxx3LngVqCdCS" version="21.1.4" type="device">
  <diagram name="Page-1" id="c4acf3e9-155e-7222-9cf6-157b1a14988f">
    <mxGraphModel dx="1687" dy="899" grid="1" gridSize="10" guides="1" tooltips="1" connect="1" arrows="1" fold="1" page="1" pageScale="1" pageWidth="850" pageHeight="1100" background="#FFF2CC" math="0" shadow="0">
      <root>
        <mxCell id="0" />
        <mxCell id="1" parent="0" />
        <mxCell id="17acba5748e5396b-1" value="frame" style="shape=umlFrame;whiteSpace=wrap;html=1;rounded=0;shadow=0;comic=0;labelBackgroundColor=none;strokeWidth=1;fontFamily=Verdana;fontSize=10;align=center;" parent="1" vertex="1">
          <mxGeometry x="20" y="30" width="820" height="740" as="geometry" />
        </mxCell>
        <mxCell id="5d2195bd80daf111-18" value="&lt;p style=&quot;margin:0px;margin-top:4px;text-align:center;&quot;&gt;&lt;font style=&quot;font-size: 18px;&quot;&gt;&lt;b style=&quot;background-color: initial;&quot;&gt;Simulator&lt;/b&gt;&lt;br&gt;&lt;/font&gt;&lt;/p&gt;&lt;hr size=&quot;1&quot;&gt;&lt;p style=&quot;margin:0px;margin-left:4px;&quot;&gt;&lt;font size=&quot;3&quot; style=&quot;&quot;&gt;-_pump: Pump&lt;br&gt;-_user: User&lt;/font&gt;&lt;/p&gt;&lt;p style=&quot;margin:0px;margin-left:4px;&quot;&gt;&lt;font size=&quot;3&quot;&gt;-_waterTower: WaterTower&lt;/font&gt;&lt;/p&gt;&lt;hr size=&quot;1&quot;&gt;&lt;p style=&quot;margin:0px;margin-left:4px;&quot;&gt;&lt;font size=&quot;3&quot;&gt;+Simulator(maxValue: double, pump: Pump, user: User): Simulator&lt;/font&gt;&lt;/p&gt;&lt;p style=&quot;margin:0px;margin-left:4px;&quot;&gt;&lt;font size=&quot;3&quot;&gt;+MeetNeeds(): void&lt;br&gt;&lt;/font&gt;&lt;/p&gt;&lt;p style=&quot;margin:0px;margin-left:4px;&quot;&gt;&lt;font size=&quot;3&quot;&gt;+ToString(): string&lt;/font&gt;&lt;/p&gt;" style="verticalAlign=top;align=left;overflow=fill;fontSize=12;fontFamily=Helvetica;html=1;rounded=0;shadow=0;comic=0;labelBackgroundColor=none;strokeWidth=1" parent="1" vertex="1">
          <mxGeometry x="185" y="50" width="490" height="173" as="geometry" />
        </mxCell>
        <mxCell id="d9obc0FMx0qIv9_DLos2-2" value="&lt;p style=&quot;margin:0px;margin-top:4px;text-align:center;&quot;&gt;&lt;font style=&quot;font-size: 18px;&quot;&gt;&lt;b&gt;Pump&lt;/b&gt;&lt;/font&gt;&lt;/p&gt;&lt;hr size=&quot;1&quot;&gt;&lt;p style=&quot;margin:0px;margin-left:4px;&quot;&gt;&lt;font size=&quot;3&quot;&gt;-_isOn: bool&lt;br&gt;&lt;/font&gt;&lt;/p&gt;&lt;p style=&quot;margin:0px;margin-left:4px;&quot;&gt;&lt;font size=&quot;3&quot;&gt;-_power: readonly double&lt;/font&gt;&lt;/p&gt;&lt;p style=&quot;margin:0px;margin-left:4px;&quot;&gt;&lt;font size=&quot;3&quot;&gt;-POWER_STANDART: const double&lt;/font&gt;&lt;/p&gt;&lt;hr size=&quot;1&quot;&gt;&lt;p style=&quot;margin:0px;margin-left:4px;&quot;&gt;&lt;font size=&quot;3&quot;&gt;+Pump(power: double): Pump&lt;br&gt;&lt;/font&gt;&lt;/p&gt;&lt;p style=&quot;margin:0px;margin-left:4px;&quot;&gt;&lt;font size=&quot;3&quot;&gt;+Pump(other: in Pump): Pump&lt;/font&gt;&lt;/p&gt;&lt;p style=&quot;margin:0px;margin-left:4px;&quot;&gt;&lt;font size=&quot;3&quot;&gt;+ToString(): string&lt;/font&gt;&lt;/p&gt;" style="verticalAlign=top;align=left;overflow=fill;fontSize=12;fontFamily=Helvetica;html=1;rounded=0;shadow=0;comic=0;labelBackgroundColor=none;strokeWidth=1" vertex="1" parent="1">
          <mxGeometry x="500" y="270" width="330" height="173" as="geometry" />
        </mxCell>
        <mxCell id="d9obc0FMx0qIv9_DLos2-3" value="&lt;p style=&quot;margin:0px;margin-top:4px;text-align:center;&quot;&gt;&lt;span style=&quot;font-size: 18px;&quot;&gt;&lt;b&gt;WaterTower&lt;/b&gt;&lt;/span&gt;&lt;/p&gt;&lt;hr size=&quot;1&quot;&gt;&lt;p style=&quot;margin:0px;margin-left:4px;&quot;&gt;&lt;font size=&quot;3&quot;&gt;-_currentLevel: double&lt;br&gt;&lt;/font&gt;&lt;/p&gt;&lt;p style=&quot;margin:0px;margin-left:4px;&quot;&gt;&lt;font size=&quot;3&quot;&gt;-_maxWaterLevel: readonly double&lt;/font&gt;&lt;/p&gt;&lt;p style=&quot;margin:0px;margin-left:4px;&quot;&gt;&lt;font size=&quot;3&quot;&gt;-_pump: Pump&lt;/font&gt;&lt;/p&gt;&lt;p style=&quot;margin:0px;margin-left:4px;&quot;&gt;&lt;font size=&quot;3&quot;&gt;-MAX_STANDART: const double&lt;/font&gt;&lt;/p&gt;&lt;hr size=&quot;1&quot;&gt;&lt;p style=&quot;margin:0px;margin-left:4px;&quot;&gt;&lt;font size=&quot;3&quot;&gt;+WaterTower(maxWaterLevel: double, pump: Pump): WaterTower&lt;/font&gt;&lt;/p&gt;&lt;p style=&quot;margin:0px;margin-left:4px;&quot;&gt;&lt;font size=&quot;3&quot;&gt;+WaterTower(other: in WaterTower): WaterTower&lt;/font&gt;&lt;/p&gt;&lt;p style=&quot;margin:0px;margin-left:4px;&quot;&gt;&lt;font size=&quot;3&quot;&gt;-IsEmpty(): bool&lt;/font&gt;&lt;/p&gt;&lt;p style=&quot;margin:0px;margin-left:4px;&quot;&gt;&lt;font size=&quot;3&quot;&gt;-AutomaticalFillTower(): bool&lt;/font&gt;&lt;/p&gt;&lt;p style=&quot;margin:0px;margin-left:4px;&quot;&gt;&lt;font size=&quot;3&quot;&gt;+ReleaseWater(willing: double): bool&lt;/font&gt;&lt;/p&gt;&lt;p style=&quot;margin:0px;margin-left:4px;&quot;&gt;&lt;font size=&quot;3&quot;&gt;+ToString(): string&lt;/font&gt;&lt;/p&gt;" style="verticalAlign=top;align=left;overflow=fill;fontSize=12;fontFamily=Helvetica;html=1;rounded=0;shadow=0;comic=0;labelBackgroundColor=none;strokeWidth=1" vertex="1" parent="1">
          <mxGeometry x="70" y="490" width="510" height="250" as="geometry" />
        </mxCell>
        <mxCell id="d9obc0FMx0qIv9_DLos2-4" value="&lt;p style=&quot;margin:0px;margin-top:4px;text-align:center;&quot;&gt;&lt;span style=&quot;font-size: 18px;&quot;&gt;&lt;b&gt;User&lt;/b&gt;&lt;/span&gt;&lt;/p&gt;&lt;hr size=&quot;1&quot;&gt;&lt;p style=&quot;margin:0px;margin-left:4px;&quot;&gt;&lt;font size=&quot;3&quot;&gt;-_consumption: double&lt;br&gt;&lt;/font&gt;&lt;/p&gt;&lt;p style=&quot;margin:0px;margin-left:4px;&quot;&gt;&lt;font size=&quot;3&quot;&gt;-_received: double&lt;/font&gt;&lt;/p&gt;&lt;hr size=&quot;1&quot;&gt;&lt;p style=&quot;margin:0px;margin-left:4px;&quot;&gt;&lt;font size=&quot;3&quot;&gt;+User(consumption: double): User&lt;br&gt;&lt;/font&gt;&lt;/p&gt;&lt;p style=&quot;margin:0px;margin-left:4px;&quot;&gt;&lt;font size=&quot;3&quot;&gt;+User(other: in User): User&lt;/font&gt;&lt;/p&gt;&lt;p style=&quot;margin:0px;margin-left:4px;&quot;&gt;&lt;font size=&quot;3&quot;&gt;+ToString(): string&lt;/font&gt;&lt;/p&gt;" style="verticalAlign=top;align=left;overflow=fill;fontSize=12;fontFamily=Helvetica;html=1;rounded=0;shadow=0;comic=0;labelBackgroundColor=none;strokeWidth=1" vertex="1" parent="1">
          <mxGeometry x="50" y="270" width="330" height="150" as="geometry" />
        </mxCell>
        <mxCell id="d9obc0FMx0qIv9_DLos2-8" value="" style="endArrow=none;html=1;rounded=0;entryX=0.996;entryY=0.517;entryDx=0;entryDy=0;entryPerimeter=0;exitX=0.665;exitY=1.006;exitDx=0;exitDy=0;exitPerimeter=0;" edge="1" parent="1" source="d9obc0FMx0qIv9_DLos2-2" target="d9obc0FMx0qIv9_DLos2-9">
          <mxGeometry width="50" height="50" relative="1" as="geometry">
            <mxPoint x="700" y="450" as="sourcePoint" />
            <mxPoint x="653.3966599999999" y="666.3399999999999" as="targetPoint" />
            <Array as="points">
              <mxPoint x="720" y="576" />
            </Array>
          </mxGeometry>
        </mxCell>
        <mxCell id="d9obc0FMx0qIv9_DLos2-9" value="" style="html=1;whiteSpace=wrap;aspect=fixed;shape=isoRectangle;" vertex="1" parent="1">
          <mxGeometry x="580" y="560" width="50" height="30" as="geometry" />
        </mxCell>
        <mxCell id="d9obc0FMx0qIv9_DLos2-11" value="" style="endArrow=classic;html=1;rounded=0;entryX=0.002;entryY=0.405;entryDx=0;entryDy=0;entryPerimeter=0;" edge="1" parent="1" target="5d2195bd80daf111-18">
          <mxGeometry width="50" height="50" relative="1" as="geometry">
            <mxPoint x="80" y="270" as="sourcePoint" />
            <mxPoint x="130" y="220" as="targetPoint" />
            <Array as="points">
              <mxPoint x="80" y="120" />
            </Array>
          </mxGeometry>
        </mxCell>
        <mxCell id="d9obc0FMx0qIv9_DLos2-12" value="" style="endArrow=classic;html=1;rounded=0;entryX=0.457;entryY=1;entryDx=0;entryDy=0;entryPerimeter=0;" edge="1" parent="1" target="5d2195bd80daf111-18">
          <mxGeometry width="50" height="50" relative="1" as="geometry">
            <mxPoint x="410" y="490" as="sourcePoint" />
            <mxPoint x="516" y="340" as="targetPoint" />
            <Array as="points">
              <mxPoint x="410" y="340" />
            </Array>
          </mxGeometry>
        </mxCell>
        <mxCell id="d9obc0FMx0qIv9_DLos2-13" value="" style="endArrow=classic;html=1;rounded=0;exitX=0.665;exitY=0.002;exitDx=0;exitDy=0;exitPerimeter=0;entryX=1;entryY=0.25;entryDx=0;entryDy=0;" edge="1" parent="1" source="d9obc0FMx0qIv9_DLos2-2" target="5d2195bd80daf111-18">
          <mxGeometry width="50" height="50" relative="1" as="geometry">
            <mxPoint x="741" y="357" as="sourcePoint" />
            <mxPoint x="740" y="90" as="targetPoint" />
            <Array as="points">
              <mxPoint x="720" y="93" />
            </Array>
          </mxGeometry>
        </mxCell>
      </root>
    </mxGraphModel>
  </diagram>
</mxfile>
